<svg width="24" height="24" viewBox="0 0 24 24" fill="none" xmlns="http://www.w3.org/2000/svg">
<path d="M12 23.75C5.51065 23.75 0.25 18.4893 0.25 12C0.25 5.51065 5.51065 0.25 12 0.25C18.4893 0.25 23.75 5.51065 23.75 12C23.75 18.4893 18.4893 23.75 12 23.75Z" stroke="#E2E8F0" style="stroke:#E2E8F0;stroke:color(display-p3 0.8863 0.9098 0.9412);stroke-opacity:1;" stroke-width="0.5"/>
<path d="M8.05749 14.5314C7.02883 15.1439 4.33177 16.3946 5.97446 17.9596C6.77691 18.7241 7.67062 19.2708 8.79424 19.2708H15.2058C16.3294 19.2708 17.2232 18.7241 18.0256 17.9596C19.6683 16.3946 16.9712 15.1439 15.9426 14.5314C13.5304 13.0951 10.4697 13.0951 8.05749 14.5314Z" stroke="#141B34" style="stroke:#141B34;stroke:color(display-p3 0.0784 0.1059 0.2039);stroke-opacity:1;" stroke-width="1.09062" stroke-linecap="round" stroke-linejoin="round"/>
<path d="M15.2719 8.00105C15.2719 9.80805 13.807 11.2729 12 11.2729C10.193 11.2729 8.72815 9.80805 8.72815 8.00105C8.72815 6.19405 10.193 4.72919 12 4.72919C13.807 4.72919 15.2719 6.19405 15.2719 8.00105Z" stroke="#141B34" style="stroke:#141B34;stroke:color(display-p3 0.0784 0.1059 0.2039);stroke-opacity:1;" stroke-width="1.09062"/>
</svg>
